<svg xmlns="http://www.w3.org/2000/svg" width="512" height="512" viewBox="0 0 512 512" role="img" aria-labelledby="title desc">
  <title id="title">zhtw-mcp extension icon</title>
  <desc id="desc">A Taiwan-inspired browser extension icon with the character 正.</desc>
  <defs>
    <linearGradient id="sky" x1="96" y1="44" x2="416" y2="468" gradientUnits="userSpaceOnUse">
      <stop offset="0" stop-color="#0f4c81"/>
      <stop offset="0.58" stop-color="#146b8f"/>
      <stop offset="1" stop-color="#0b2f4f"/>
    </linearGradient>
    <linearGradient id="island" x1="224" y1="98" x2="332" y2="422" gradientUnits="userSpaceOnUse">
      <stop offset="0" stop-color="#7bd88f"/>
      <stop offset="0.55" stop-color="#28a87d"/>
      <stop offset="1" stop-color="#13745f"/>
    </linearGradient>
    <filter id="soft-shadow" x="-20%" y="-20%" width="140%" height="150%">
      <feDropShadow dx="0" dy="12" stdDeviation="12" flood-color="#032033" flood-opacity="0.34"/>
    </filter>
  </defs>

  <rect x="32" y="32" width="448" height="448" rx="104" fill="url(#sky)"/>
  <circle cx="142" cy="134" r="42" fill="#f5d96b"/>
  <path d="M110 134h64M142 102v64M119 111l46 46M165 111l-46 46" stroke="#fff4b0" stroke-width="9" stroke-linecap="round" opacity="0.9"/>

  <path
    d="M302 74c-15 17-25 33-31 52-8 25-24 42-42 60-19 19-29 43-28 70 1 34-19 58-34 83-12 20-5 46 19 56 24 10 47-2 56-25 10-25 31-40 56-53 29-15 43-42 39-74-4-34 8-60 28-86 18-24 8-60-21-76-14-8-29-11-42-7z"
    fill="url(#island)"
    filter="url(#soft-shadow)"
    stroke="#d3f7dc"
    stroke-width="10"
    stroke-linejoin="round"/>

  <circle cx="272" cy="260" r="113" fill="#ffffff" opacity="0.94" filter="url(#soft-shadow)"/>
  <circle cx="272" cy="260" r="98" fill="none" stroke="#e23d3d" stroke-width="16"/>
  <text
    x="272"
    y="311"
    text-anchor="middle"
    font-family="PingFang TC, Noto Sans TC, Heiti TC, Microsoft JhengHei, sans-serif"
    font-size="152"
    font-weight="900"
    fill="#143f67"
    letter-spacing="-8">正</text>
</svg>
